<svg xmlns="http://www.w3.org/2000/svg" viewBox="0 0 500 500" width="600" height="500">
    <defs>
        <style>
            .axis { stroke: black; stroke-width: 3; }
            .axis-label { fill: black; font-size: 15; }
            .chart-label { font-size: 12; text-anchor: end; }
            .country { stroke-width: 2; }
            .average-line { stroke: purple; stroke-width: 2; }
        </style>
    </defs>

    <line class="axis" x1="50" y1="50" x2="50" y2="450"/>
    <line class="axis" x1="50" y1="450" x2="520" y2="450"/>

    <text class="axis-label" x="220" y="490">Year (1960-2020)</text>
    <text class="axis-label" x="-20" y="240" transform="rotate(-90 -20,240)">Age</text>

    {% for age in ages %}
    <text class="chart-label" x="35" y="{{450-(age * 4)}}" fill="black">{{age}}</text>
    {% endfor %}

    {% for year in years2 %}
    <text class="chart-label" text-anchor="start" x="{{50 + (loop.index0 * 75)}}" y="470" fill="black">{{year}}</text>
    {% endfor %}

    <g class="canada" stroke="blue">
        <text fill="blue" x="440" y="15">Canada</text>
        {% for x in Canada %}
        <line class="country" x1="{{50+(loop.index0 * 7.5)}}" y1="{{450 - (x[0] * 4)}}" x2="{{57.5 + (loop.index0 * 7.5)}}" y2="{{450 - (x[1] * 4)}}"/>
        {% endfor %}
    </g>

    <g class="us" stroke="red">
        <text fill="red" x="450" y="30">USA</text>
        {% for x in Us %}
        <line class="country" x1="{{50+(loop.index0 * 7.5)}}" y1="{{450 - (x[0] * 4)}}" x2="{{57.5 + (loop.index0 * 7.5)}}" y2="{{450 - (x[1] * 4)}}"/>
        {% endfor %}
    </g>

    <g class="mexico" stroke="orange">
        <text fill="orange" x="440" y="45">Mexico</text>
        {% for x in Mex %}
        <line class="country" x1="{{50+(loop.index0 * 7.5)}}" y1="{{450 - (x[0] * 4)}}" x2="{{57.5 + (loop.index0 * 7.5)}}" y2="{{450 - (x[1] * 4)}}"/>
        {% endfor %}
    </g>

    <g class="average">
          <text fill="purple" x="440" y="60">Average</text>
          <line stroke-width="2" x1="{{50}}" y1="{{450 - (74.5 * 4)}}" x2="{{500}}" y2="{{450 - (74.5 * 4)}}"/>
     </g>
</svg>